# xmcd
#
# Track frame offsets:
#	150
#	11995
#	36959
#
# Disc length: 689 seconds
#
# Revision: 0
# Processed by: cddbd v1.4PL0 Copyright (c) Steve Scherf et al.
# Submitted via: EasyCDDAExtractor 4.6.0.1
#
DISCID=2002af03
DTITLE=Soul Sista - Funk and Soul
DYEAR=1990
DGENRE=blues
TTITLE0=I feel Good
TTITLE1=love changes
TTITLE2=Body heat
EXTD=
EXTT0=
EXTT1=
EXTT2=
PLAYORDER=
